<mxfile host="app.diagrams.net" modified="2022-05-12T06:57:01.116Z" agent="5.0 (Windows NT 10.0; Win64; x64) AppleWebKit/537.36 (KHTML, like Gecko) Chrome/100.0.4896.127 Safari/537.36" etag="P4nMfooAwqU0TPFs1xl6" version="18.0.1" type="github">
  <diagram id="Sighrr5EJc3nkvVo9MGu" name="Страница 1">
    <mxGraphModel dx="1363" dy="678" grid="1" gridSize="10" guides="1" tooltips="1" connect="1" arrows="1" fold="1" page="1" pageScale="1" pageWidth="827" pageHeight="1169" math="0" shadow="0">
      <root>
        <mxCell id="0" />
        <mxCell id="1" parent="0" />
        <mxCell id="64zmmEyAMitg9ue6WrV5-5" value="" style="verticalLabelPosition=bottom;sketch=0;aspect=fixed;html=1;verticalAlign=top;strokeColor=none;align=center;outlineConnect=0;shape=mxgraph.citrix.home_office;" vertex="1" parent="1">
          <mxGeometry x="143" y="239" width="80" height="55.5" as="geometry" />
        </mxCell>
        <mxCell id="64zmmEyAMitg9ue6WrV5-6" value="" style="verticalLabelPosition=bottom;sketch=0;aspect=fixed;html=1;verticalAlign=top;strokeColor=none;align=center;outlineConnect=0;shape=mxgraph.citrix.home_office;" vertex="1" parent="1">
          <mxGeometry x="263" y="239" width="80" height="55.5" as="geometry" />
        </mxCell>
        <mxCell id="64zmmEyAMitg9ue6WrV5-7" value="" style="verticalLabelPosition=bottom;sketch=0;aspect=fixed;html=1;verticalAlign=top;strokeColor=none;align=center;outlineConnect=0;shape=mxgraph.citrix.home_office;" vertex="1" parent="1">
          <mxGeometry x="383" y="239" width="80" height="55.5" as="geometry" />
        </mxCell>
        <mxCell id="64zmmEyAMitg9ue6WrV5-9" value="" style="endArrow=classic;html=1;rounded=0;" edge="1" parent="1">
          <mxGeometry width="50" height="50" relative="1" as="geometry">
            <mxPoint x="183" y="150" as="sourcePoint" />
            <mxPoint x="183" y="230" as="targetPoint" />
          </mxGeometry>
        </mxCell>
        <mxCell id="64zmmEyAMitg9ue6WrV5-10" value="" style="endArrow=classic;html=1;rounded=0;" edge="1" parent="1">
          <mxGeometry width="50" height="50" relative="1" as="geometry">
            <mxPoint x="303" y="150" as="sourcePoint" />
            <mxPoint x="302.60000000000014" y="230" as="targetPoint" />
          </mxGeometry>
        </mxCell>
        <mxCell id="64zmmEyAMitg9ue6WrV5-11" value="" style="endArrow=classic;html=1;rounded=0;" edge="1" parent="1">
          <mxGeometry width="50" height="50" relative="1" as="geometry">
            <mxPoint x="423" y="150" as="sourcePoint" />
            <mxPoint x="422.60000000000014" y="230" as="targetPoint" />
          </mxGeometry>
        </mxCell>
        <mxCell id="64zmmEyAMitg9ue6WrV5-12" value="" style="endArrow=classic;html=1;rounded=0;" edge="1" parent="1">
          <mxGeometry width="50" height="50" relative="1" as="geometry">
            <mxPoint x="313" y="150" as="sourcePoint" />
            <mxPoint x="413" y="230" as="targetPoint" />
          </mxGeometry>
        </mxCell>
        <mxCell id="64zmmEyAMitg9ue6WrV5-13" value="Контактные лица из договора" style="text;html=1;align=center;verticalAlign=middle;resizable=0;points=[];autosize=1;strokeColor=#666666;fillColor=#f5f5f5;fontColor=#333333;" vertex="1" parent="1">
          <mxGeometry x="333" y="40" width="180" height="20" as="geometry" />
        </mxCell>
        <mxCell id="64zmmEyAMitg9ue6WrV5-14" value="Орг.1" style="text;html=1;align=center;verticalAlign=middle;resizable=0;points=[];autosize=1;strokeColor=none;fillColor=none;" vertex="1" parent="1">
          <mxGeometry x="163" y="294.5" width="40" height="20" as="geometry" />
        </mxCell>
        <mxCell id="64zmmEyAMitg9ue6WrV5-15" value="Орг.2" style="text;html=1;align=center;verticalAlign=middle;resizable=0;points=[];autosize=1;strokeColor=none;fillColor=none;" vertex="1" parent="1">
          <mxGeometry x="283" y="294.5" width="40" height="20" as="geometry" />
        </mxCell>
        <mxCell id="64zmmEyAMitg9ue6WrV5-16" value="Орг.3" style="text;html=1;align=center;verticalAlign=middle;resizable=0;points=[];autosize=1;strokeColor=none;fillColor=none;" vertex="1" parent="1">
          <mxGeometry x="403" y="294.5" width="40" height="20" as="geometry" />
        </mxCell>
        <mxCell id="64zmmEyAMitg9ue6WrV5-17" value="" style="shape=actor;whiteSpace=wrap;html=1;" vertex="1" parent="1">
          <mxGeometry x="163" y="90" width="40" height="50" as="geometry" />
        </mxCell>
        <mxCell id="64zmmEyAMitg9ue6WrV5-18" value="" style="shape=actor;whiteSpace=wrap;html=1;" vertex="1" parent="1">
          <mxGeometry x="283" y="90" width="40" height="50" as="geometry" />
        </mxCell>
        <mxCell id="64zmmEyAMitg9ue6WrV5-19" value="" style="shape=actor;whiteSpace=wrap;html=1;" vertex="1" parent="1">
          <mxGeometry x="403" y="90" width="40" height="50" as="geometry" />
        </mxCell>
        <mxCell id="64zmmEyAMitg9ue6WrV5-20" value="" style="verticalLabelPosition=bottom;sketch=0;aspect=fixed;html=1;verticalAlign=top;strokeColor=none;align=center;outlineConnect=0;shape=mxgraph.citrix.home_office;" vertex="1" parent="1">
          <mxGeometry x="503" y="239" width="80" height="55.5" as="geometry" />
        </mxCell>
        <mxCell id="64zmmEyAMitg9ue6WrV5-21" value="" style="endArrow=classic;html=1;rounded=0;" edge="1" parent="1">
          <mxGeometry width="50" height="50" relative="1" as="geometry">
            <mxPoint x="543" y="150" as="sourcePoint" />
            <mxPoint x="542.6000000000001" y="229.9999999999999" as="targetPoint" />
          </mxGeometry>
        </mxCell>
        <mxCell id="64zmmEyAMitg9ue6WrV5-22" value="Орг.4" style="text;html=1;align=center;verticalAlign=middle;resizable=0;points=[];autosize=1;strokeColor=none;fillColor=none;" vertex="1" parent="1">
          <mxGeometry x="523" y="294.5" width="40" height="20" as="geometry" />
        </mxCell>
        <mxCell id="64zmmEyAMitg9ue6WrV5-23" value="" style="shape=actor;whiteSpace=wrap;html=1;" vertex="1" parent="1">
          <mxGeometry x="523" y="90" width="40" height="50" as="geometry" />
        </mxCell>
        <mxCell id="64zmmEyAMitg9ue6WrV5-25" value="" style="endArrow=classic;html=1;rounded=0;" edge="1" parent="1">
          <mxGeometry width="50" height="50" relative="1" as="geometry">
            <mxPoint x="663" y="150" as="sourcePoint" />
            <mxPoint x="553" y="230" as="targetPoint" />
          </mxGeometry>
        </mxCell>
        <mxCell id="64zmmEyAMitg9ue6WrV5-37" value="" style="shape=actor;whiteSpace=wrap;html=1;" vertex="1" parent="1">
          <mxGeometry x="643" y="90" width="40" height="50" as="geometry" />
        </mxCell>
      </root>
    </mxGraphModel>
  </diagram>
</mxfile>
